# xmcd
#
# Track frame offsets: 
#        150
#        15092
#        27197
#        43308
#        54011
#        66004
#        77174
#        94978
#        107156
#        119013
#        133010
#        149690
#        160962
#        175142
#        190722
#        206082
#
# Disc length: 2937 seconds
#
# Revision: 0
# Processed by: cddbd v1.5.2PL0 Copyright (c) Steve Scherf et al.
# Submitted via: ExactAudioCopy v0.99pb5
#
DISCID=de0b7710
DTITLE=Various Artist - Essential Country
DYEAR=2005
DGENRE=Country
TTITLE0=George Jones - Who's Gonna Fill Their Shoes
TTITLE1=Tammy Wynette - 'Til I Get It Right
TTITLE2=Johnny Lee - Looking For Love
TTITLE3=Patsy Cline - Lovesick Blues
TTITLE4=Conway Twitty - Lying Here With Linda On My Mind
TTITLE5=Roger Miller - Husbands And Wives
TTITLE6=Deborah Allen - Baby I Lied
TTITLE7=Willie Nelson - Ten With A Two
TTITLE8=Ray Price - Heartaches By The Number
TTITLE9=Merle Haggard - Always Wanting You
TTITLE10=Joe South - Walk A Mile In My Shoes
TTITLE11=Janie Fricki - Don't Worry About Me Baby
TTITLE12=Eddie Raven - I Should've Called
TTITLE13=Holly Dunn - Daddy's Hands
TTITLE14=Bobby Goldsboro - Little Green Apples
TTITLE15=Lee Greenwood - Dixie Road
EXTD=
EXTT0=
EXTT1=
EXTT2=
EXTT3=
EXTT4=
EXTT5=
EXTT6=
EXTT7=
EXTT8=
EXTT9=
EXTT10=
EXTT11=
EXTT12=
EXTT13=
EXTT14=
EXTT15=
PLAYORDER=
